Coordinates
version=1
nRows=15
nColumns=38
inDegrees=yes

Units are S.I. units (second, meters, Newtons, ...)
Angles are in degrees.

endheader
time	pelvis_tilt	pelvis_list	pelvis_rotation	pelvis_tx	pelvis_ty	pelvis_tz	hip_flexion_r	hip_adduction_r	hip_rotation_r	knee_angle_r	ankle_angle_r	subtalar_angle_r	mtp_angle_r	hip_flexion_l	hip_adduction_l	hip_rotation_l	knee_angle_l	ankle_angle_l	subtalar_angle_l	mtp_angle_l	lumbar_extension	lumbar_bending	lumbar_rotation	arm_flex_r	arm_add_r	arm_rot_r	elbow_flex_r	pro_sup_r	wrist_flex_r	wrist_dev_r	arm_flex_l	arm_add_l	arm_rot_l	elbow_flex_l	pro_sup_l	wrist_flex_l	wrist_dev_l
      5.06000000	     -6.75274522	     -1.84550131	     -2.21615327	     -0.19893467	      0.86794748	      2.60462090	     26.32147841	      4.78370964	      2.20906235	    -17.88409006	      0.55583729	      0.00000000	      0.00000000	     -1.54458143	     -2.54665522	     -0.45008223	    -60.36396786	    -27.34357146	      0.00000000	      0.00000000	     -1.33089091	      3.61546284	    -11.00000249	    -24.09651843	    -25.54441171	     10.12863317	    121.63462593	     77.18477933	      0.00000000	      0.00000000	      3.63423877	    -14.88632009	     25.11337904	    126.59334622	     98.72135404	      0.00000000	      0.00000000
      5.07000000	     -6.13841323	     -2.54135338	     -2.51038469	     -0.20122061	      0.85881399	      2.60687177	     26.56749525	      5.97813671	      2.58976435	    -22.20080460	      1.57362768	      0.00000000	      0.00000000	     -0.00802303	     -3.74611427	     -0.73787730	    -65.10223337	    -25.54124699	      0.00000000	      0.00000000	     -2.37692220	      4.30046528	    -10.17565660	    -20.95601744	    -25.73969582	     12.55431136	    119.75254594	     76.61812767	      0.00000000	      0.00000000	      2.93153451	    -14.96734457	     24.99656443	    126.19872755	     98.50557684	      0.00000000	      0.00000000
      5.08000000	     -5.40729245	     -3.52244847	     -2.88127976	     -0.20446690	      0.84986348	      2.60960508	     26.99721283	      7.57477237	      2.72324970	    -27.27038044	      3.58451317	      0.00000000	      0.00000000	      1.59442054	     -5.31939981	     -0.97249119	    -69.86913685	    -23.54669850	      0.00000000	      0.00000000	     -3.68975836	      5.22117668	     -9.09133226	    -17.51050650	    -25.79405359	     15.06429804	    117.59907351	     75.97705861	      0.00000000	      0.00000000	      2.28602167	    -15.02952245	     24.77817714	    125.55153809	     98.14002832	      0.00000000	      0.00000000
      5.09000000	     -4.68466797	     -4.71334981	     -3.32423502	     -0.20819230	      0.84071319	      2.61245388	     27.48959515	      9.44477490	      2.77379737	    -32.51630155	      6.44479447	      0.00000000	      0.00000000	      3.37510617	     -7.14626921	     -1.10437534	    -74.58727879	    -21.41969414	      0.00000000	      0.00000000	     -5.05905009	      6.34844398	     -7.74523744	    -13.83790007	    -25.73648210	     17.60307167	    115.25073816	     75.39254529	      0.00000000	      0.00000000	      1.65468230	    -14.99460605	     24.47814352	    124.58788261	     97.76088918	      0.00000000	      0.00000000
      5.10000000	     -4.19778604	     -5.98274031	     -3.83372113	     -0.21192518	      0.83150882	      2.61475591	     27.85568504	     11.37064336	      2.84795128	    -37.15971210	      9.74689505	      0.00000000	      0.00000000	      5.52296384	     -9.02610369	     -1.10019225	    -79.06523870	    -19.24781836	      0.00000000	      0.00000000	     -6.20610789	      7.61164346	     -6.18053229	    -10.07307040	    -25.61249793	     20.11966483	    112.84218847	     74.99375220	      0.00000000	      0.00000000	      0.95195998	    -14.80787809	     24.13452441	    123.29983452	     97.51516489	      0.00000000	      0.00000000
      5.11000000	     -4.14210027	     -7.18053104	     -4.38023701	     -0.21542013	      0.82347105	      2.61613619	     27.90277126	     13.09585449	      2.94716086	    -40.51509633	     13.00530272	      0.00000000	      0.00000000	      8.20273915	    -10.73615790	     -0.91961942	    -83.03758196	    -17.11683162	      0.00000000	      0.00000000	     -6.92896966	      8.89649730	     -4.48474638	     -6.37621140	    -25.45052318	     22.55453170	    110.55404496	     74.88139479	      0.00000000	      0.00000000	      0.09245165	    -14.47690647	     23.78015538	    121.75798523	     97.51132660	      0.00000000	      0.00000000
      5.12000000	     -4.51262553	     -8.17556460	     -4.87096194	     -0.21877523	      0.81784364	      2.61662484	     27.47461550	     14.39258313	      2.99699796	    -42.26720401	     15.83703801	      0.00000000	      0.00000000	     11.39913338	    -12.08489781	     -0.50784310	    -86.28088860	    -15.07818282	      0.00000000	      0.00000000	     -7.19766072	     10.05700790	     -2.78447713	     -2.88870566	    -25.23956435	     24.82375634	    108.60156664	     75.10795080	      0.00000000	      0.00000000	     -0.96401460	    -14.07704822	     23.42099352	    120.12609567	     97.77444840	      0.00000000	      0.00000000
      5.13000000	     -5.06665455	     -8.88692949	     -5.13582528	     -0.22186684	      0.81463776	      2.61645108	     26.44965850	     15.11556145	      2.92409781	    -42.56729519	     18.05400401	      0.00000000	      0.00000000	     14.86303313	    -12.93777479	      0.17569001	    -88.70721216	    -13.13288592	      0.00000000	      0.00000000	     -7.15304308	     10.94704401	     -1.23018928	      0.29531070	    -24.93059908	     26.82054019	    107.20550528	     75.66752415	      0.00000000	      0.00000000	     -2.19669837	    -13.72110572	     23.03223927	    118.63917399	     98.22273646	      0.00000000	      0.00000000
      5.14000000	     -5.46326447	     -9.27571792	     -4.98556378	     -0.22436433	      0.81331516	      2.61583627	     24.76120117	     15.23495274	      2.71447159	    -41.87998795	     19.65039840	      0.00000000	      0.00000000	     18.23848433	    -13.21712473	      1.10786743	    -90.35204767	    -11.24411505	      0.00000000	      0.00000000	     -7.02242958	     11.45958332	      0.03480816	      3.13384294	    -24.46439814	     28.43900825	    106.53537312	     76.49816447	      0.00000000	      0.00000000	     -3.54485943	    -13.51262656	     22.57176611	    117.53567975	     98.67828668	      0.00000000	      0.00000000
      5.15000000	     -5.48082366	     -9.31716848	     -4.32227466	     -0.22635454	      0.81375861	      2.61474964	     22.44721009	     14.83056328	      2.41924991	    -40.69605427	     20.72032926	      0.00000000	      0.00000000	     21.26554153	    -12.89543375	      2.17400655	    -91.28649257	     -9.37393094	      0.00000000	      0.00000000	     -6.99131235	     11.54800032	      0.92166667	      5.63292408	    -23.80943683	     29.60714295	    106.65177378	     77.49816747	      0.00000000	      0.00000000	     -4.94986743	    -13.50838502	     22.00210027	    116.97631420	     98.91432759	      0.00000000	      0.00000000
      5.16000000	     -5.15295593	     -9.00316642	     -3.21488226	     -0.22792443	      0.81574430	      2.61310190	     19.67389492	     14.02806140	      2.12574422	    -39.30955078	     21.35986593	      0.00000000	      0.00000000	     23.89453463	    -11.99813118	      3.19239733	    -91.54537239	     -7.52347003	      0.00000000	      0.00000000	     -7.09802382	     11.21924265	      1.44185695	      7.83273809	    -22.97873194	     30.31986248	    107.48474044	     78.55141876	      0.00000000	      0.00000000	     -6.39123816	    -13.70650681	     21.30857203	    116.99427147	     98.72508633	      0.00000000	      0.00000000
      5.17000000	     -4.73153709	     -8.34652301	     -1.87625900	     -0.22896978	      0.81879427	      2.61099516	     16.69702190	     12.93349205	      1.91304890	    -37.77482806	     21.59970986	      0.00000000	      0.00000000	     26.25261721	    -10.60757367	      3.97839689	    -91.11577820	     -5.75159496	      0.00000000	      0.00000000	     -7.22014218	     10.51250228	      1.71597109	      9.78175963	    -22.01572761	     30.65596002	    108.86155357	     79.55211508	      0.00000000	      0.00000000	     -7.89218093	    -14.06097675	     20.50230091	    117.49852186	     97.99222878	      0.00000000	      0.00000000
      5.18000000	     -4.51676186	     -7.37791264	     -0.56265226	     -0.22969448	      0.82269376	      2.60862471	     13.77459739	     11.61588618	      1.81217611	    -36.01984237	     21.38942144	      0.00000000	      0.00000000	     28.52051898	     -8.84812301	      4.40270058	    -89.96536209	     -4.15939602	      0.00000000	      0.00000000	     -7.16138521	      9.47852531	      1.92594745	     11.51908901	    -20.97004778	     30.75340257	    110.56880800	     80.42112810	      0.00000000	      0.00000000	     -9.49194564	    -14.51082957	     19.60673502	    118.32192783	     96.72309135	      0.00000000	      0.00000000
      5.19000000	     -4.68564548	     -6.15864846	      0.53884010	     -0.23041126	      0.82735360	      2.60621272	     11.07446754	     10.11524160	      1.79650231	    -34.00266169	     20.62473824	      0.00000000	      0.00000000	     30.80413164	     -6.85756674	      4.41725561	    -88.07787273	     -2.84966594	      0.00000000	      0.00000000	     -6.77764911	      8.16866756	      2.23591452	     13.07444027	    -19.88266774	     30.75015430	    112.41477467	     81.11146707	      0.00000000	      0.00000000	    -11.20634801	    -15.00637350	     18.63957104	    119.28788065	     95.04947964	      0.00000000	      0.00000000
      5.20000000	     -5.22365893	     -4.77654177	      1.37101677	     -0.23101707	      0.83259293	      2.60397923	      8.62571474	      8.45106402	      1.80196099	    -31.79275618	     19.19083366	      0.00000000	      0.00000000	     33.06316581	     -4.76538712	      4.05856269	    -85.47312969	     -1.88527144	      0.00000000	      0.00000000	     -6.06173352	      6.63772853	      2.73188065	     14.47249290	    -18.78285807	     30.73334791	    114.26348889	     81.60547612	      0.00000000	      0.00000000	    -13.00450303	    -15.51875795	     17.60539553	    120.26544216	     93.19193565	      0.00000000	      0.00000000
